PathFileType	4	(X/Y/Z)	Walk8.trc
DataRate	CameraRate	NumFrames	NumMarkers	Units	OrigDataRate	OrigDataStartFrame	OrigNumFrames
200.000000	200.000000	6	59	mm	200.000000	332	515
Frame#	Times		RFHD		RACR1		RUA1		RFA1		RWRR		LACR1		LFA1		LWRU		RTH1		LTH4		CLAV		RWRU		LTH2		LFHD		LUA1		RBack		RCAR		LTH3		RElbow		T10		LASI		C7		LTH1		LLFC		LWRR		LTB2		STRN		LMT1		LTB4		LBHD		RTB1		RTH4		LMMAL		LTB1		LElbowM		LCAL		LCAR		RTH2		RPSI		LElbow		RBHD		LTB3		RTH3		LMT5		RLFC		RElbowM		RTB2		RTB4		LPSI		RMT1		RTB3		LLMAL		RASI		RCAL		RLMAL		RToe		LToe		RMMAL		RMT5
			X1	Y1	Z1	X2	Y2	Z2	X3	Y3	Z3	X4	Y4	Z4	X5	Y5	Z5	X6	Y6	Z6	X7	Y7	Z7	X8	Y8	Z8	X9	Y9	Z9	X10	Y10	Z10	X11	Y11	Z11	X12	Y12	Z12	X13	Y13	Z13	X14	Y14	Z14	X15	Y15	Z15	X16	Y16	Z16	X17	Y17	Z17	X18	Y18	Z18	X19	Y19	Z19	X20	Y20	Z20	X21	Y21	Z21	X22	Y22	Z22	X23	Y23	Z23	X24	Y24	Z24	X25	Y25	Z25	X26	Y26	Z26	X27	Y27	Z27	X28	Y28	Z28	X29	Y29	Z29	X30	Y30	Z30	X31	Y31	Z31	X32	Y32	Z32	X33	Y33	Z33	X34	Y34	Z34	X35	Y35	Z35	X36	Y36	Z36	X37	Y37	Z37	X38	Y38	Z38	X39	Y39	Z39	X40	Y40	Z40	X41	Y41	Z41	X42	Y42	Z42	X43	Y43	Z43	X44	Y44	Z44	X45	Y45	Z45	X46	Y46	Z46	X47	Y47	Z47	X48	Y48	Z48	X49	Y49	Z49	X50	Y50	Z50	X51	Y51	Z51	X52	Y52	Z52	X53	Y53	Z53	X54	Y54	Z54	X55	Y55	Z55	X56	Y56	Z56	X57	Y57	Z57	X58	Y58	Z58	X59	Y59	Z59

332	1.66	-168.54	1424.7	14.641	-270.3	1226.4	130.06	-268.75	1089.6	220.12	-193.4	851.59	265.86	-166.9	754.22	231.54	-245.67	1210.4	-236.38	-150.02	846.62	-328.27	-125.36	738.58	-341.41	-250.53	645.56	185.78	-291.26	564.65	-218.19	-187.21	1187.4	-42.032	-201.19	751.29	295.37	-238.61	571.02	-192.05	-151.5	1434.6	-80.393	-215.11	1043.4	-297.38	-384.95	1159.2	60.776	-146.72	701.66	284.93	-297.78	481.7	-189.1	-265.68	961.84	257.69	-418.19	1075.7	-45.508	-219.15	816.46	-191.47	-326.61	1273.8	-57.848	-285.27	648.77	-237.97	-286.19	386.58	-150.41	-88.304	756.48	-293.8	-337.33	206.06	-135.52	-139.08	1080.7	-24.341	-236.74	27.666	-65.01	-319.96	203.95	-75.902	-277.73	1360	-119.6	-141.81	303.04	77.988	-217.79	567.17	165.84	-387.77	74.979	-23.429	-288.41	285.88	-82.404	-269.54	898.61	-252.79	-455.61	51.458	-57.583	-72.022	708.72	-338.49	-166.61	595.86	152.03	-466.79	851.53	23.214	-234.9	923.06	-315.55	-299.3	1354.9	11.503	-342.71	124.15	-69.962	-181.63	492.46	139.05	-334.22	19.936	-124.98	-186.64	407.22	123.01	-314.87	924.99	186.99	-202.18	223.19	113.11	-163.19	220.52	66.477	-471.1	856.96	-81.443	-117.57	49.259	30.789	-176.25	138.84	55.73	-410.31	61.989	-101.92	-213.03	834.46	135.16	-283.76	53.485	28.861	-234.18	77.562	83.326	-76.156	57.934	74.041	-290.55	33.38	-39.663	-209.6	89.851	3.6924	-153.72	36.058	111.76
333	1.665	-162.72	1424.3	15.1	-264.63	1226	130.33	-263.25	1089.3	220.46	-188.16	851.51	266.9	-161.56	754.08	232.86	-239.48	1210.1	-236.06	-142.69	846.96	-327.85	-116.79	739.21	-340.45	-244.57	644.9	186.25	-286.86	564.27	-217.9	-181.33	1187	-41.679	-196.04	751.27	296.6	-234.21	570.3	-191.74	-145.6	1434.2	-79.929	-209.48	1043.2	-297.48	-379.2	1158.8	60.85	-141.57	701.6	286.42	-293.91	481.34	-188.9	-260.39	961.73	258.34	-412.26	1075.3	-45.457	-213.13	815.56	-190.87	-320.72	1273.5	-57.646	-280.38	648.41	-237.61	-283.07	385.99	-150.28	-80.091	757.66	-292.78	-335.8	205.82	-135.42	-133.18	1080.2	-23.977	-236.58	27.561	-65.048	-318.54	203.58	-75.75	-271.79	1359.6	-119.27	-132.51	303.98	77.687	-212.04	566.55	165.7	-387.44	75.244	-23.277	-286.29	285.2	-82.243	-262.69	898.02	-252.51	-455.44	52.147	-57.402	-63.179	709.97	-337.29	-160.75	595.2	152.24	-460.76	851.02	23.886	-228.47	922.67	-315.41	-293.5	1354.5	11.817	-341.95	123.96	-69.846	-176.07	491.97	138.39	-334.24	19.958	-124.84	-180.88	406.61	122.29	-309.47	924.77	187.64	-189.63	221.91	113.09	-150.49	220.65	66.529	-465.31	856.74	-80.701	-97.816	51.196	31.454	-160.15	138.45	56.131	-410.08	62.38	-101.8	-207.31	834.18	135.69	-264.1	48.717	29.343	-215.48	74.902	83.838	-56.756	61.555	74.662	-290.46	33.348	-39.61	-191.4	87.943	4.2233	-133.46	36.685	112.51
334	1.67	-156.91	1423.9	15.574	-258.96	1225.5	130.61	-257.76	1088.9	220.82	-182.9	851.4	267.98	-156.15	753.92	234.18	-233.29	1209.8	-235.71	-135.42	847.28	-327.43	-108.31	739.83	-339.48	-238.65	644.14	186.74	-282.46	563.88	-217.6	-175.45	1186.6	-41.314	-190.84	751.21	297.83	-229.79	569.58	-191.46	-139.7	1433.8	-79.449	-203.81	1043	-297.54	-373.44	1158.4	60.949	-136.37	701.5	287.9	-290	480.97	-188.71	-255.09	961.58	259	-406.33	1074.9	-45.368	-207.1	814.63	-190.26	-314.83	1273	-57.417	-275.5	648.03	-237.25	-279.89	385.39	-150.16	-71.972	758.8	-291.77	-334.23	205.59	-135.32	-127.28	1079.7	-23.699	-236.41	27.458	-65.094	-317.07	203.22	-75.613	-265.85	1359.1	-118.91	-123.45	304.94	77.394	-206.44	565.81	165.6	-387.09	75.539	-23.132	-284.09	284.52	-82.098	-255.86	897.42	-252.22	-455.26	52.888	-57.226	-54.454	711.18	-336.09	-155	594.35	152.48	-454.69	850.48	24.647	-222.07	922.26	-315.25	-287.7	1354.1	12.161	-341.16	123.8	-69.742	-170.74	491.31	137.81	-334.26	19.978	-124.7	-175.34	405.9	121.6	-304.04	924.49	188.3	-177.26	220.79	113.06	-138.01	220.92	66.567	-459.52	856.54	-79.883	-78.41	53.465	32.038	-144.27	138.33	56.508	-409.84	62.805	-101.69	-201.52	833.84	136.23	-244.56	44.381	29.788	-196.93	72.615	84.312	-37.74	65.463	75.177	-290.36	33.317	-39.563	-173.41	86.391	4.7155	-113.49	37.674	113.18
335	1.675	-151.1	1423.4	16.063	-253.29	1225.1	130.93	-252.27	1088.6	221.21	-177.61	851.25	269.08	-150.69	753.73	235.5	-227.12	1209.4	-235.34	-128.21	847.56	-327.01	-99.934	740.42	-338.52	-232.79	643.31	187.26	-278.05	563.48	-217.31	-169.57	1186.2	-40.935	-185.59	751.12	299.05	-225.36	568.85	-191.22	-133.81	1433.4	-78.953	-198.1	1042.8	-297.55	-367.67	1157.9	61.076	-131.12	701.36	289.37	-286.06	480.59	-188.52	-249.78	961.38	259.67	-400.39	1074.4	-45.238	-201.05	813.66	-189.64	-308.94	1272.6	-57.159	-270.64	647.65	-236.88	-276.63	384.78	-150.05	-63.948	759.9	-290.77	-332.63	205.37	-135.23	-121.35	1079.1	-23.498	-236.25	27.358	-65.149	-315.55	202.86	-75.492	-259.93	1358.7	-118.52	-114.61	305.93	77.103	-200.98	564.95	165.56	-386.73	75.866	-22.997	-281.82	283.83	-81.971	-249.09	896.82	-251.91	-455.07	53.686	-57.057	-45.849	712.34	-334.9	-149.36	593.31	152.75	-448.57	849.92	25.493	-215.7	921.85	-315.06	-281.9	1353.6	12.538	-340.36	123.65	-69.652	-165.64	490.49	137.32	-334.27	19.995	-124.56	-170.01	405.09	120.95	-298.57	924.18	188.97	-165.08	219.83	113.02	-125.78	221.33	66.582	-453.71	856.35	-78.994	-59.42	56.031	32.527	-128.69	138.47	56.847	-409.58	63.269	-101.58	-195.64	833.43	136.77	-225.23	40.491	30.191	-178.62	70.704	84.74	-19.17	69.614	75.57	-290.26	33.288	-39.523	-155.69	85.195	5.1563	-93.86	38.997	113.77
336	1.68	-145.28	1422.9	16.569	-247.62	1224.6	131.27	-246.8	1088.2	221.63	-172.29	851.08	270.21	-145.18	753.51	236.83	-220.96	1209.1	-234.94	-121.07	847.81	-326.57	-91.666	740.98	-337.56	-226.98	642.4	187.79	-273.62	563.08	-217.03	-163.68	1185.7	-40.538	-180.29	750.98	300.27	-220.89	568.12	-191.01	-127.93	1432.9	-78.441	-192.34	1042.6	-297.52	-361.89	1157.3	61.236	-125.83	701.19	290.84	-282.06	480.21	-188.33	-244.46	961.15	260.35	-394.44	1073.8	-45.064	-194.99	812.67	-189.03	-303.06	1272.1	-56.87	-265.77	647.25	-236.52	-273.29	384.16	-149.95	-56.023	760.95	-289.77	-330.99	205.17	-135.16	-115.41	1078.5	-23.367	-236.08	27.262	-65.211	-313.97	202.51	-75.388	-254.01	1358.2	-118.1	-106	306.93	76.803	-195.66	563.98	165.58	-386.34	76.226	-22.874	-279.48	283.13	-81.865	-242.37	896.22	-251.58	-454.87	54.546	-56.9	-37.366	713.46	-333.72	-143.83	592.09	153.05	-442.4	849.35	26.419	-209.35	921.43	-314.86	-276.1	1353.1	12.951	-339.53	123.53	-69.576	-160.74	489.5	136.93	-334.28	20.01	-124.42	-164.85	404.18	120.33	-293.08	923.83	189.66	-153.12	219.03	112.95	-113.82	221.87	66.563	-447.89	856.17	-78.042	-40.92	58.852	32.907	-113.45	138.85	57.136	-409.32	63.775	-101.48	-189.68	832.95	137.31	-206.2	37.053	30.549	-160.63	69.16	85.113	-1.1072	73.955	75.827	-290.16	33.261	-39.492	-138.33	84.345	5.5357	-74.664	40.618	114.24
337	1.685	-139.46	1422.4	17.091	-241.95	1224.1	131.63	-241.33	1087.8	222.08	-166.92	850.87	271.36	-139.6	753.27	238.15	-214.82	1208.7	-234.51	-114	848.04	-326.13	-83.51	741.53	-336.61	-221.23	641.42	188.33	-269.16	562.66	-216.76	-157.79	1185.2	-40.124	-174.94	750.8	301.47	-216.39	567.39	-190.84	-122.05	1432.4	-77.911	-186.53	1042.4	-297.42	-356.1	1156.8	61.433	-120.49	700.97	292.29	-278.02	479.81	-188.16	-239.12	960.87	261.04	-388.49	1073.2	-44.842	-188.91	811.66	-188.44	-297.19	1271.6	-56.543	-260.9	646.84	-236.16	-269.86	383.54	-149.86	-48.2	761.96	-288.79	-329.31	204.98	-135.09	-109.46	1078	-23.295	-235.92	27.168	-65.278	-312.35	202.16	-75.303	-248.11	1357.7	-117.65	-97.594	307.94	76.482	-190.48	562.9	165.67	-385.93	76.62	-22.768	-277.06	282.42	-81.78	-235.7	895.62	-251.26	-454.66	55.475	-56.757	-29.009	714.53	-332.55	-138.41	590.71	153.4	-436.18	848.77	27.416	-203.03	921	-314.63	-270.31	1352.6	13.401	-338.68	123.43	-69.517	-156.04	488.36	136.67	-334.29	20.024	-124.28	-159.83	403.21	119.75	-287.54	923.43	190.35	-141.4	218.38	112.86	-102.15	222.51	66.499	-442.05	856.01	-77.034	-22.985	61.871	33.167	-98.599	139.44	57.363	-409.03	64.327	-101.39	-183.62	832.42	137.84	-187.59	34.061	30.861	-143.04	67.967	85.427	16.387	78.42	75.936	-290.05	33.238	-39.471	-121.4	83.819	5.8459	-55.976	42.489	114.59
